<svg id="Layer_1" data-name="Layer 1" xmlns="http://www.w3.org/2000/svg" viewBox="0 0 1218.52401 733.76327"><defs><style>.cls-1,.cls-2,.cls-3,.cls-4{fill:none;}.cls-1{stroke:#000;stroke-width:15px;}.cls-2{stroke:#00d9ff;}.cls-2,.cls-3,.cls-4{stroke-width:10px;}.cls-3{stroke:#15d6ff;}.cls-4{stroke:#ffdf94;}</style></defs><polyline class="cls-1" points="0.258 726.263 364.188 726.263 364.188 479.255"/><line class="cls-1" x1="7.5" y1="726.242" x2="7.5" y2="652.79076"/><line class="cls-1" x1="11.5" y1="459.88277" x2="11.5" y2="190.83254"/><line class="cls-1" x1="11.5" y1="374.90978" x2="372.99531" y2="374.90978"/><line class="cls-1" x1="471.24329" y1="374.90978" x2="629.37118" y2="374.90978"/><line class="cls-1" x1="624.2427" y1="172.46585" x2="621.67847" y2="374.90978"/><line class="cls-1" x1="560.99155" y1="178.72279" x2="624.11308" y2="178.6995"/><line class="cls-1" x1="568.68426" y1="13.75694" x2="568.68299" y2="178.71995"/><line class="cls-1" x1="0.25796" y1="7.50002" x2="229.35036" y2="8.35476"/><line class="cls-1" x1="407.99214" y1="7.5" x2="717.40995" y2="7.5"/><line class="cls-1" x1="819.12464" y1="11.77373" x2="1110.5928" y2="11.77373"/><line class="cls-1" x1="827.67209" y1="278.45427" x2="826.81736" y2="17.75892"/><line class="cls-1" x1="819.12464" y1="374.90978" x2="1218.52401" y2="374.90978"/><line class="cls-1" x1="1100.33585" y1="148.1066" x2="1100.33585" y2="374.90978"/><line class="cls-1" x1="1018.82433" y1="382.7332" x2="1018.82433" y2="640.86629"/><line class="cls-1" x1="1109.73805" y1="632.60935" x2="1018.82433" y2="632.60935"/><line class="cls-1" x1="364.18764" y1="726.26327" x2="1218.52401" y2="726.26327"/><line class="cls-1" x1="1210.598" y1="382.7332" x2="1210.598" y2="726.26327"/><path class="cls-2" d="M36.306,184.98273" transform="translate(-23.14844 -5.4459)"/><line class="cls-3" x1="11.5" y1="190.83254" x2="11.5" y2="14.06242"/><line class="cls-3" x1="407.99214" y1="7.5" x2="228.96188" y2="7.50002"/><line class="cls-3" x1="9.5" y1="652.0256" x2="9.5" y2="460.88277"/><line class="cls-3" x1="1100.33585" y1="148.1066" x2="1100.33585" y2="18.40411"/><line class="cls-3" x1="819.12464" y1="11.77373" x2="717.40995" y2="7.85339"/><line class="cls-4" x1="471.24329" y1="374.91008" x2="372.99531" y2="374.90914"/><line class="cls-4" x1="827.68121" y1="278.4512" x2="827.2529" y2="364.55056"/><line class="cls-4" x1="1199.38125" y1="632.60935" x2="1109.73805" y2="632.6084"/><line class="cls-4" x1="364.18764" y1="382.42067" x2="364.18764" y2="479.25547"/></svg>